<svg width="25" height="29" viewBox="0 0 25 29" fill="none" xmlns="http://www.w3.org/2000/svg">
<path d="M21.7158 6.51064C21.5226 6.41314 21.3346 6.30626 21.1523 6.1904C20.6225 5.84829 20.1366 5.44519 19.7053 4.98977C18.6262 3.7839 18.2232 2.56057 18.0747 1.70406H18.0807C17.9567 0.993115 18.0079 0.533127 18.0157 0.533127H13.1005V19.0945C13.1005 19.3437 13.1005 19.59 13.0898 19.8334C13.0898 19.8637 13.0868 19.8916 13.085 19.9242C13.085 19.9376 13.085 19.9516 13.0821 19.9656V19.9761C13.0303 20.642 12.8117 21.2854 12.4455 21.8495C12.0793 22.4136 11.5768 22.8812 10.9822 23.2111C10.3625 23.5554 9.66156 23.7361 8.94855 23.7352C6.65852 23.7352 4.80252 21.9115 4.80252 19.6593C4.80252 17.4071 6.65852 15.5835 8.94855 15.5835C9.38205 15.5831 9.81287 15.6497 10.225 15.7809L10.231 10.8933C8.97977 10.7355 7.70863 10.8326 6.49776 11.1786C5.28689 11.5245 4.16258 12.1118 3.19574 12.9033C2.34857 13.6222 1.63635 14.4799 1.09113 15.4379C0.883647 15.7873 0.100826 17.1911 0.00602878 19.4695C-0.053592 20.7627 0.344079 22.1025 0.533673 22.6562V22.6679C0.652914 22.9939 1.11498 24.1066 1.86799 25.0447C2.47519 25.7971 3.19257 26.4581 3.99705 27.0063V26.9947L4.00897 27.0063C6.38844 28.5854 9.02666 28.4818 9.02666 28.4818C9.48335 28.4637 11.0132 28.4818 12.7506 27.6777C14.6775 26.7862 15.7745 25.4581 15.7745 25.4581C16.4754 24.6645 17.0327 23.7601 17.4225 22.7837C17.8672 21.6419 18.0157 20.2724 18.0157 19.7251V9.87787C18.0753 9.91281 18.8695 10.4258 18.8695 10.4258C18.8695 10.4258 20.0136 11.142 21.7986 11.6084C23.0793 11.9402 24.8047 12.0101 24.8047 12.0101V7.24488C24.2002 7.30892 22.9726 7.1226 21.7158 6.51064Z" fill="#E4DFF9"/>
</svg>
