<svg width="57" height="49" viewBox="0 0 57 49" fill="none" xmlns="http://www.w3.org/2000/svg">
<path d="M17.9377 33.5994C17.9377 33.5994 17.7578 44.456 18.1176 44.8924C18.4818 45.3288 21.7508 47.35 28.0211 47.4266C34.2914 47.5031 37.8325 45.2063 37.9246 44.6933C38.0168 44.1765 38.2405 32.8453 38.2405 32.8453C38.2405 32.8453 41.6017 31.2987 43.9624 27.8113C46.3231 24.3239 47.9598 19.5693 47.8676 15.6838C47.7842 12.1964 46.2792 11.6413 45.5069 11.1666C44.7346 10.6919 43.9624 10.7685 43.9624 10.7685C43.9624 10.7685 43.5236 5.7651 41.1015 3.71323C38.0168 1.10627 33.291 1.26323 28.0694 1.26323C22.7556 1.26323 17.455 0.972291 13.7604 5.46268C10.5352 9.38651 11.3075 15.5268 11.4874 18.5778C11.6673 21.6289 12.9705 26.5901 13.9403 28.5233C15.849 32.3323 17.9377 33.5994 17.9377 33.5994Z" fill="#DC0D28"/>
<path d="M20.9434 41.1064C20.8951 42.9209 21.6762 44.1766 28.122 44.1574C34.5679 44.1383 35.0198 43.1047 35.09 41.2519C35.1471 39.8048 34.4275 38.8823 31.8781 38.9627C30.0615 39.0201 25.9193 38.978 23.6332 38.9205C22.3826 38.8899 20.9873 39.2536 20.9434 41.1064Z" fill="#FFC402"/>
<path d="M17.9379 33.5994C17.9379 33.5994 22.1284 34.8014 27.9731 34.855C33.9451 34.9086 38.2408 32.8491 38.2408 32.8491L38.1575 35.7164C38.1575 35.7164 34.34 37.328 28.0345 37.328C21.7291 37.328 17.9116 36.0111 17.9116 36.0111L17.9379 33.5994ZM34.8051 10.0182C35.6958 10.9714 37.1746 10.1789 38.1267 9.96456C39.0789 9.75018 40.8341 9.77698 40.8955 9.91096C40.9569 10.0449 38.6489 10.4469 37.4203 12.7017C36.4681 14.4435 36.7314 16.5834 36.8235 17.3069C36.9552 18.352 37.6046 19.8679 39.1755 19.8679C41.0842 19.8679 41.2685 18.3903 41.3299 17.6399C41.3914 16.8896 40.8253 13.4443 41.9091 11.9628C42.8525 10.6689 43.9671 10.7685 43.9671 10.7685C43.9671 10.7685 43.8837 10.0411 43.7915 9.55877C43.6994 9.07643 43.5809 8.55963 43.5809 8.55963C43.5809 8.55963 41.8872 7.78635 40.6235 7.33081C39.3598 6.87526 37.021 6.69151 35.5423 7.68299C34.3488 8.4869 34.5287 9.72338 34.8051 10.0182Z" fill="#950D19"/>
</svg>
