<svg width="30" height="34" viewBox="0 0 30 34" fill="none" xmlns="http://www.w3.org/2000/svg">
<path d="M21.25 25.0654C19.8625 25.0654 18.75 26.2617 18.75 27.7538C18.75 28.4668 19.0134 29.1506 19.4822 29.6547C19.9511 30.1589 20.587 30.4422 21.25 30.4422C21.913 30.4422 22.5489 30.1589 23.0178 29.6547C23.4866 29.1506 23.75 28.4668 23.75 27.7538C23.75 27.0407 23.4866 26.3569 23.0178 25.8528C22.5489 25.3486 21.913 25.0654 21.25 25.0654ZM1.25 3.55811V6.24651H3.75L8.25 16.449L6.55 19.7423C6.3625 20.1187 6.25 20.5623 6.25 21.0327C6.25 21.7458 6.51339 22.4296 6.98223 22.9337C7.45107 23.4379 8.08696 23.7211 8.75 23.7211H23.75V21.0327H9.275C9.19212 21.0327 9.11263 20.9973 9.05403 20.9343C8.99542 20.8713 8.9625 20.7858 8.9625 20.6967C8.9625 20.6295 8.975 20.5757 9 20.5354L10.125 18.3443H19.4375C20.375 18.3443 21.2 17.7798 21.625 16.9598L26.1 8.26282C26.1875 8.04774 26.25 7.81923 26.25 7.59071C26.25 7.23421 26.1183 6.89231 25.8839 6.64022C25.6495 6.38813 25.3315 6.24651 25 6.24651H6.5125L5.3375 3.55811M8.75 25.0654C7.3625 25.0654 6.25 26.2617 6.25 27.7538C6.25 28.4668 6.51339 29.1506 6.98223 29.6547C7.45107 30.1589 8.08696 30.4422 8.75 30.4422C9.41304 30.4422 10.0489 30.1589 10.5178 29.6547C10.9866 29.1506 11.25 28.4668 11.25 27.7538C11.25 27.0407 10.9866 26.3569 10.5178 25.8528C10.0489 25.3486 9.41304 25.0654 8.75 25.0654Z" fill="#E4DFF9"/>
</svg>
