<svg width="43" height="47" viewBox="0 0 43 47" fill="none" xmlns="http://www.w3.org/2000/svg">
<g clip-path="url(#clip0_687_1929)">
<path d="M35.8334 34.2709C36.5236 34.2713 37.1872 34.5619 37.6867 35.0825C38.1862 35.6031 38.4833 36.3137 38.5165 37.0672C38.5496 37.8208 38.3163 38.5593 37.8649 39.1299C37.4134 39.7005 36.7784 40.0594 36.0914 40.1322L35.8334 40.1459H7.16675C6.47657 40.1455 5.81297 39.855 5.31347 39.3344C4.81397 38.8138 4.51685 38.1031 4.48368 37.3496C4.45052 36.5961 4.68384 35.8575 5.13531 35.2869C5.58678 34.7163 6.22179 34.3574 6.90875 34.2846L7.16675 34.2709H35.8334ZM35.8334 20.5626C36.5462 20.5626 37.2298 20.8721 37.7338 21.423C38.2378 21.9738 38.5209 22.721 38.5209 23.5001C38.5209 24.2792 38.2378 25.0263 37.7338 25.5772C37.2298 26.1281 36.5462 26.4376 35.8334 26.4376H7.16675C6.45398 26.4376 5.7704 26.1281 5.2664 25.5772C4.76239 25.0263 4.47925 24.2792 4.47925 23.5001C4.47925 22.721 4.76239 21.9738 5.2664 21.423C5.7704 20.8721 6.45398 20.5626 7.16675 20.5626H35.8334ZM35.8334 6.85425C36.5462 6.85425 37.2298 7.16373 37.7338 7.71462C38.2378 8.26551 38.5209 9.01267 38.5209 9.79175C38.5209 10.5708 38.2378 11.318 37.7338 11.8689C37.2298 12.4198 36.5462 12.7292 35.8334 12.7292H7.16675C6.45398 12.7292 5.7704 12.4198 5.2664 11.8689C4.76239 11.318 4.47925 10.5708 4.47925 9.79175C4.47925 9.01267 4.76239 8.26551 5.2664 7.71462C5.7704 7.16373 6.45398 6.85425 7.16675 6.85425H35.8334Z" fill="#F0FD60"/>
</g>
<defs>
<clipPath id="clip0_687_1929">
<rect width="43" height="47" fill="white"/>
</clipPath>
</defs>
</svg>
