<svg width="30" height="28" viewBox="0 0 30 28" fill="none" xmlns="http://www.w3.org/2000/svg">
<path d="M5 21.0002C5 19.7625 5.52678 18.5755 6.46447 17.7003C7.40215 16.8252 8.67392 16.3335 10 16.3335H20C21.3261 16.3335 22.5979 16.8252 23.5355 17.7003C24.4732 18.5755 25 19.7625 25 21.0002C25 21.619 24.7366 22.2125 24.2678 22.6501C23.7989 23.0877 23.163 23.3335 22.5 23.3335H7.5C6.83696 23.3335 6.20107 23.0877 5.73223 22.6501C5.26339 22.2125 5 21.619 5 21.0002Z" stroke="#E4DFF9" stroke-width="2.5" stroke-linejoin="round"/>
<path d="M15 11.6667C17.0711 11.6667 18.75 10.0997 18.75 8.16675C18.75 6.23375 17.0711 4.66675 15 4.66675C12.9289 4.66675 11.25 6.23375 11.25 8.16675C11.25 10.0997 12.9289 11.6667 15 11.6667Z" stroke="#E4DFF9" stroke-width="2.5"/>
</svg>
