<svg width="35" height="30" viewBox="0 0 35 30" fill="none" xmlns="http://www.w3.org/2000/svg">
<path d="M29.0964 4.05811H20.5413C20.3775 4.05809 20.2159 4.09002 20.069 4.15144C19.922 4.21286 19.7937 4.30212 19.6938 4.41234L11.1387 13.8598L9.84739 12.7653C9.64875 12.5964 9.41287 12.4624 9.15323 12.371C8.89358 12.2796 8.61527 12.2325 8.3342 12.2325C8.05314 12.2325 7.77482 12.2796 7.51518 12.371C7.25554 12.4624 7.01965 12.5964 6.82102 12.7653L5.1247 14.2072C4.92605 14.3759 4.76846 14.5762 4.66095 14.7966C4.55344 15.017 4.4981 15.2533 4.4981 15.4919C4.4981 15.7305 4.55344 15.9667 4.66095 16.1872C4.76846 16.4076 4.92605 16.6079 5.1247 16.7766L7.79817 19.0473L4.05532 22.2264C3.85666 22.395 3.69908 22.5953 3.59156 22.8157C3.48405 23.0362 3.42871 23.2724 3.42871 23.511C3.42871 23.7496 3.48405 23.9859 3.59156 24.2063C3.69908 24.4267 3.85666 24.627 4.05532 24.7957L5.75163 26.2354C6.15269 26.5758 6.69648 26.767 7.26348 26.767C7.83047 26.767 8.37427 26.5758 8.77533 26.2354L12.5182 23.0563L15.1917 25.3271C15.3903 25.496 15.6262 25.6299 15.8858 25.7214C16.1455 25.8128 16.4238 25.8598 16.7048 25.8598C16.9859 25.8598 17.2642 25.8128 17.5239 25.7214C17.7835 25.6299 18.0194 25.496 18.218 25.3271L19.9143 23.8851C20.113 23.7164 20.2706 23.5162 20.3781 23.2957C20.4856 23.0753 20.5409 22.839 20.5409 22.6005C20.5409 22.3619 20.4856 22.1256 20.3781 21.9052C20.2706 21.6848 20.113 21.4845 19.9143 21.3158L18.6257 20.2213L29.7487 12.9549C29.8788 12.8698 29.9841 12.7604 30.0564 12.6352C30.1288 12.51 30.1662 12.3723 30.1657 12.2328V4.9664C30.1657 4.72551 30.0531 4.49448 29.8525 4.32414C29.652 4.1538 29.38 4.05811 29.0964 4.05811ZM28.027 11.7855L17.1005 18.9247L15.6381 17.6826L22.3672 11.9671C22.5677 11.7967 22.6803 11.5656 22.6802 11.3247C22.68 11.0837 22.5672 10.8527 22.3666 10.6824C22.1659 10.5122 21.8938 10.4166 21.6102 10.4167C21.3265 10.4168 21.0545 10.5126 20.8541 10.683L14.1249 16.3973L12.6639 15.1552L21.0679 5.8747H28.027V11.7855Z" fill="#E4DFF9"/>
</svg>
