<svg width="33" height="30" viewBox="0 0 33 30" fill="none" xmlns="http://www.w3.org/2000/svg">
<path d="M10.9842 3.60503C11.0127 3.4778 11.012 3.34682 10.982 3.21985C10.952 3.09288 10.8933 2.97252 10.8095 2.86589C10.7257 2.75925 10.6184 2.66853 10.4941 2.59908C10.3697 2.52964 10.2308 2.48289 10.0856 2.46162C9.94035 2.44034 9.79173 2.44496 9.64856 2.47521C9.50538 2.50546 9.37056 2.56072 9.25208 2.63772C9.1336 2.71471 9.03388 2.81188 8.95882 2.92345C8.88377 3.03502 8.8349 3.15873 8.81513 3.28725L4.41537 26.5397C4.38685 26.6669 4.38761 26.7979 4.41762 26.9249C4.44764 27.0518 4.50628 27.1722 4.59009 27.2788C4.67389 27.3855 4.78115 27.4762 4.9055 27.5456C5.02985 27.6151 5.16876 27.6618 5.314 27.6831C5.45924 27.7044 5.60785 27.6998 5.75103 27.6695C5.8942 27.6393 6.02903 27.584 6.14751 27.507C6.26599 27.43 6.36571 27.3328 6.44077 27.2213C6.51582 27.1097 6.56468 26.986 6.58445 26.8575L8.05838 19.0679C9.83148 19.2966 11.7476 19.3721 13.2567 20.3042C14.1904 20.8951 15.2701 21.2823 16.4069 21.4338C18.532 21.7167 20.4327 20.6878 22.5314 20.9804L25.3671 21.3563C25.939 21.4338 26.533 21.0463 26.6188 20.5425L28.5635 9.04416L28.5723 9.03641C28.6022 8.7833 28.5218 8.52964 28.3474 8.32675C28.173 8.12386 27.9176 7.98689 27.6329 7.94355L24.7973 7.56763C22.6788 7.29054 20.7737 8.2904 18.675 8.0133C17.7337 7.8874 16.8384 7.57103 16.0593 7.08902C14.4336 6.08723 12.4977 5.92058 10.5904 5.68418L10.9864 3.60309L10.9842 3.60503ZM9.68629 10.4606L10.4122 6.63947C11.73 6.79836 13.1247 6.88944 14.3456 7.35449L13.6967 11.1621C12.4427 10.7106 11.026 10.6234 9.68629 10.4606ZM8.24097 18.1146L8.96693 14.2895C10.3309 14.4562 11.7762 14.5414 13.0543 15.0026L13.7143 11.1737C15.1618 11.6969 16.2639 12.594 17.8787 12.8033L18.5386 8.96665C20.1621 9.18174 21.5063 8.62368 23.066 8.51323L22.406 12.3228C20.8441 12.439 19.4934 13.0203 17.8743 12.8072L17.2451 16.64C15.626 16.4268 14.5216 15.5258 13.0675 15.0045L12.4075 18.8334C11.0986 18.3703 9.62909 18.2889 8.24097 18.1146ZM17.2473 16.6419C18.862 16.855 20.2193 16.2699 21.7812 16.1555L22.406 12.3228C23.8469 12.2065 25.3209 12.5378 26.7354 12.7277L26.1194 16.5566C24.7027 16.3687 23.2244 16.0354 21.7834 16.1555L21.1235 19.9844C19.5638 20.0774 18.1866 20.682 16.5873 20.4689L17.2451 16.64L17.2473 16.6419Z" fill="#E4DFF9"/>
</svg>
