<svg width="30" height="27" viewBox="0 0 30 27" fill="none" xmlns="http://www.w3.org/2000/svg">
<path d="M7.11075 6.79728C8.20511 5.83317 9.51816 5.08336 10.9641 4.59685C12.41 4.11035 13.9561 3.89811 15.5015 3.97401C17.0469 4.04991 18.5568 4.41224 19.9323 5.03731C21.3078 5.66239 22.5181 6.53613 23.484 7.60142L16.6167 13.6481L23.484 19.6948C22.5499 20.7233 21.3875 21.5732 20.0679 22.1927C18.7482 22.8121 17.2991 23.188 15.809 23.2974C14.3188 23.4069 12.819 23.2476 11.4011 22.8292C9.98328 22.4109 8.67714 21.7423 7.56254 20.8643C6.44794 19.9863 5.54828 18.9173 4.91854 17.7227C4.28879 16.5281 3.94219 15.233 3.89991 13.9164C3.85762 12.5998 4.12054 11.2895 4.67261 10.0655C5.22467 8.84142 6.05428 7.72937 7.11075 6.79728Z" stroke="#E4DFF9" stroke-width="2" stroke-linecap="round" stroke-linejoin="round"/>
<path d="M14.2778 9.8803C14.9528 9.8803 15.5 9.39833 15.5 8.8038C15.5 8.20926 14.9528 7.72729 14.2778 7.72729C13.6028 7.72729 13.0557 8.20926 13.0557 8.8038C13.0557 9.39833 13.6028 9.8803 14.2778 9.8803Z" fill="#E4DFF9" stroke="#E4DFF9" stroke-width="2" stroke-linecap="round" stroke-linejoin="round"/>
</svg>
