<svg width="40" height="33" viewBox="0 0 40 33" fill="none" xmlns="http://www.w3.org/2000/svg">
<path d="M7.82135 19.5541C7.82135 18.687 7.94455 17.8344 8.18898 16.9931C8.43341 16.1534 8.81472 15.3493 9.33292 14.5839C9.41505 14.466 9.49718 14.3433 9.57735 14.2173C9.65948 14.0914 9.75725 13.9751 9.86871 13.8653C9.96467 13.759 10.0841 13.6686 10.2207 13.5989C10.366 13.5339 10.5287 13.4998 10.6939 13.4998C10.8592 13.4998 11.0218 13.5339 11.1671 13.5989C11.3144 13.6615 11.4366 13.758 11.5191 13.8766L13.5508 16.6152C13.6389 16.7375 13.7652 16.8379 13.9165 16.9059C14.0776 16.9748 14.2553 17.0134 14.4366 17.0189C14.5926 17.0246 14.7479 16.9988 14.889 16.9436C15.0301 16.8884 15.1527 16.8056 15.2462 16.7024C15.3803 16.5572 15.4733 16.3889 15.5183 16.2101C15.5633 16.0312 15.5592 15.8463 15.5063 15.669C15.4708 15.5649 15.4251 15.4633 15.3694 15.3654C14.967 14.6587 14.6246 13.9298 14.3447 13.1839C14.0725 12.4262 13.9387 11.6392 13.9478 10.8489C13.9478 9.78967 14.1629 8.86119 14.5892 8.06188C15.0174 7.26258 15.6119 6.57631 16.3765 6.00469C17.1391 5.43307 18.0308 4.97125 19.0496 4.61762C20.1016 4.25631 21.1978 3.98994 22.3191 3.82316C22.4591 3.80177 22.6031 3.80662 22.7405 3.83737C22.8779 3.86811 23.0052 3.92396 23.113 4.00078C23.3476 4.1671 23.465 4.37379 23.465 4.61762C23.465 5.87874 23.725 7.08173 24.2432 8.22497C24.7688 9.37829 25.4947 10.4624 26.3981 11.4432L28.0935 13.2711C28.6645 13.8847 29.1886 14.5241 29.6677 15.1894C30.1467 15.8531 30.5339 16.5426 30.8292 17.2579C31.1225 17.9732 31.277 18.7386 31.2868 19.5541C31.2868 20.4535 31.1538 21.3287 30.8898 22.1781C30.6306 23.0152 30.2402 23.8207 29.7283 24.5743C29.2199 25.3236 28.6176 26.005 27.9254 26.6186C27.2288 27.2347 26.438 27.7731 25.5729 28.2205C24.6969 28.6742 23.7544 29.0246 22.7473 29.2684C21.709 29.515 20.6345 29.6421 19.5541 29.6463C18.4739 29.6508 17.3985 29.5273 16.3608 29.2797C15.3691 29.042 14.4231 28.6898 13.5508 28.2334C12.6862 27.7801 11.8911 27.2423 11.1828 26.6315C10.47 26.0176 9.86326 25.3254 9.37985 24.5743C8.88928 23.814 8.50485 23.0101 8.23395 22.1781C7.95657 21.3223 7.81783 20.44 7.82135 19.5541ZM29.3313 19.4653C29.3313 18.8194 29.1847 18.1783 28.8874 17.5486C28.5828 16.9019 28.2043 16.2807 27.7572 15.6932C27.309 15.0986 26.8193 14.526 26.2906 13.9783C25.79 13.46 25.301 12.934 24.824 12.4007C23.9193 11.4173 23.1744 10.3402 22.6085 9.19705C22.0443 8.04785 21.6891 6.83605 21.5545 5.601C20.7701 5.75694 20.0111 5.99005 19.294 6.29534C18.6327 6.57698 18.0295 6.94321 17.5067 7.38046C16.9946 7.81365 16.5947 8.32846 16.3315 8.89348C16.0444 9.52706 15.8987 10.1983 15.9013 10.8748C15.9013 11.5481 16.0108 12.1908 16.2239 12.8044C16.439 13.418 16.7284 14.0252 17.0941 14.621C17.2271 14.8406 17.3229 15.0635 17.3855 15.2895C17.5607 15.8575 17.5232 16.456 17.2779 17.006C17.1395 17.3191 16.9268 17.6062 16.6522 17.8505C16.379 18.0936 16.0517 18.2909 15.6881 18.4318C15.3007 18.5784 14.8785 18.6518 14.4523 18.6466C13.9126 18.6466 13.4237 18.5449 12.9857 18.343C12.5339 18.1305 12.1551 17.8265 11.8848 17.4597C11.6814 17.1998 11.4878 16.943 11.304 16.6911C11.1133 16.4286 10.9197 16.1676 10.7232 15.908C10.0959 17.0535 9.77321 18.2968 9.77681 19.5541C9.77681 20.3114 9.88827 21.0429 10.1131 21.7501C10.3361 22.4558 10.6528 23.1227 11.0596 23.7557C11.8772 25.0097 13.071 26.0694 14.5266 26.8334C15.2501 27.2112 16.0362 27.5051 16.881 27.7167C17.7257 27.9266 18.6174 28.0315 19.5541 28.0315C20.9092 28.0441 22.2506 27.8069 23.4806 27.3372C24.6543 26.8856 25.7083 26.2468 26.582 25.4576C27.4619 24.6615 28.1465 23.732 28.598 22.7206C29.0673 21.6872 29.3118 20.6004 29.3313 19.4653Z" fill="#E4DFF9"/>
</svg>
