<svg width="33" height="36" viewBox="0 0 33 36" fill="none" xmlns="http://www.w3.org/2000/svg">
<g clip-path="url(#clip0_329_4681)">
<path d="M31.0862 22.7963L27.4849 17.8624L31.0156 13.0271C31.2087 12.7626 31.3304 12.442 31.3663 12.1029C31.4023 11.7639 31.351 11.4204 31.2186 11.1127C31.0845 10.7678 30.862 10.4751 30.5792 10.2714C30.2965 10.0677 29.9661 9.96213 29.6298 9.96801H2.26707C2.04566 9.96409 1.82574 10.009 1.61985 10.1001C1.41397 10.1912 1.22615 10.3268 1.06714 10.499C0.908125 10.6713 0.781025 10.8769 0.693097 11.1041C0.60517 11.3313 0.558138 11.5757 0.554688 11.8232L0.554688 23.9114C0.563965 24.4096 0.749317 24.8834 1.07021 25.2292C1.3911 25.575 1.82142 25.7646 2.26707 25.7567H29.7269C30.052 25.7628 30.3718 25.6647 30.6487 25.4741C30.9255 25.2835 31.1478 25.0084 31.2892 24.6811C31.4163 24.3771 31.4646 24.0394 31.4287 23.7063C31.3928 23.3731 31.2742 23.0579 31.0862 22.7963ZM2.32003 23.7831V11.9416H29.4886L25.2165 17.7933L29.5504 23.7831H2.32003Z" fill="#E4DFF9"/>
<path d="M8.84269 19.1947L5.96519 14.9021H4.96777V21.0005H5.96519V16.7178L8.84269 21.0005H9.83128V14.9021H8.84269V19.1947Z" fill="#E4DFF9"/>
<path d="M11.3057 21.0005H15.4189V19.994H12.3031V18.4052H15.1188V17.3888H12.3031V15.9185H15.4189V14.9021H11.3057V21.0005Z" fill="#E4DFF9"/>
<path d="M22.1981 19.2736L20.9094 14.9021H19.8325L18.535 19.2736L17.3699 14.9021H16.2842L18.0142 21.0005H18.994L20.3709 16.4711L21.7391 21.0005H22.7365L24.4577 14.9021H23.372L22.1981 19.2736Z" fill="#E4DFF9"/>
</g>
<defs>
<clipPath id="clip0_329_4681">
<rect width="31.7761" height="35.5246" fill="white" transform="translate(0.554688 0.100098)"/>
</clipPath>
</defs>
</svg>
