<svg width="25" height="24" viewBox="0 0 25 24" fill="none" xmlns="http://www.w3.org/2000/svg">
<g clip-path="url(#clip0_691_928)">
<path d="M12.5 0C9.10781 0 8.68125 0.015 7.34844 0.072C6.01563 0.132 5.10781 0.333 4.3125 0.63C3.47827 0.931229 2.72264 1.40374 2.09844 2.0145C1.46262 2.61404 0.97048 3.33936 0.65625 4.14C0.346875 4.902 0.135938 5.775 0.075 7.05C0.015625 8.3325 0 8.7405 0 12.0015C0 15.2595 0.015625 15.6675 0.075 16.947C0.1375 18.225 0.346875 19.0965 0.65625 19.86C0.976562 20.649 1.40313 21.318 2.09844 21.9855C2.79219 22.653 3.48906 23.064 4.31094 23.37C5.10781 23.667 6.01406 23.8695 7.34531 23.928C8.67969 23.985 9.10469 24 12.5 24C15.8953 24 16.3188 23.985 17.6531 23.928C18.9828 23.868 19.8938 23.667 20.6891 23.37C21.5228 23.0686 22.2778 22.5961 22.9016 21.9855C23.5969 21.318 24.0234 20.649 24.3437 19.86C24.6516 19.0965 24.8625 18.225 24.925 16.947C24.9844 15.6675 25 15.2595 25 12C25 8.7405 24.9844 8.3325 24.925 7.0515C24.8625 5.775 24.6516 4.902 24.3437 4.14C24.0296 3.33934 23.5374 2.61401 22.9016 2.0145C22.2775 1.40351 21.5219 0.930968 20.6875 0.63C19.8906 0.333 18.9812 0.1305 17.6516 0.072C16.3172 0.015 15.8938 0 12.4969 0H12.5016H12.5ZM11.3797 2.163H12.5016C15.8391 2.163 16.2344 2.1735 17.5516 2.232C18.7703 2.2845 19.4328 2.481 19.8734 2.6445C20.4562 2.862 20.8734 3.123 21.3109 3.543C21.7484 3.963 22.0188 4.362 22.2453 4.923C22.4172 5.3445 22.6203 5.9805 22.675 7.1505C22.7359 8.415 22.7484 8.7945 22.7484 11.997C22.7484 15.1995 22.7359 15.5805 22.675 16.845C22.6203 18.015 22.4156 18.6495 22.2453 19.0725C22.0449 19.5935 21.725 20.0647 21.3094 20.451C20.8719 20.871 20.4563 21.1305 19.8719 21.348C19.4344 21.513 18.7719 21.708 17.5516 21.762C16.2344 21.819 15.8391 21.8325 12.5016 21.8325C9.16406 21.8325 8.76719 21.819 7.45 21.762C6.23125 21.708 5.57031 21.513 5.12969 21.348C4.58672 21.1559 4.09551 20.8494 3.69219 20.451C3.27617 20.064 2.95582 19.5925 2.75469 19.071C2.58438 18.6495 2.37969 18.0135 2.325 16.8435C2.26563 15.579 2.25313 15.1995 2.25313 11.994C2.25313 8.79 2.26563 8.412 2.325 7.1475C2.38125 5.9775 2.58438 5.3415 2.75625 4.9185C2.98281 4.359 3.25469 3.9585 3.69219 3.5385C4.12969 3.1185 4.54531 2.859 5.12969 2.6415C5.57031 2.4765 6.23125 2.2815 7.45 2.2275C8.60313 2.1765 9.05 2.1615 11.3797 2.16V2.163ZM19.1734 4.155C18.9765 4.155 18.7814 4.19225 18.5994 4.26461C18.4174 4.33698 18.2521 4.44305 18.1128 4.57677C17.9735 4.71048 17.863 4.86923 17.7876 5.04394C17.7122 5.21864 17.6734 5.4059 17.6734 5.595C17.6734 5.7841 17.7122 5.97135 17.7876 6.14606C17.863 6.32077 17.9735 6.47952 18.1128 6.61323C18.2521 6.74695 18.4174 6.85302 18.5994 6.92539C18.7814 6.99775 18.9765 7.035 19.1734 7.035C19.5713 7.035 19.9528 6.88329 20.2341 6.61323C20.5154 6.34318 20.6734 5.97691 20.6734 5.595C20.6734 5.21309 20.5154 4.84682 20.2341 4.57677C19.9528 4.30671 19.5713 4.155 19.1734 4.155ZM12.5016 5.838C11.6501 5.82525 10.8045 5.97523 10.014 6.27921C9.22353 6.58319 8.50393 7.03511 7.89711 7.60864C7.29029 8.18216 6.80838 8.86585 6.47944 9.61989C6.1505 10.3739 5.98109 11.1833 5.98109 12.0007C5.98109 12.8182 6.1505 13.6276 6.47944 14.3816C6.80838 15.1356 7.29029 15.8193 7.89711 16.3929C8.50393 16.9664 9.22353 17.4183 10.014 17.7223C10.8045 18.0263 11.6501 18.1763 12.5016 18.1635C14.1868 18.1383 15.7941 17.4779 16.9765 16.3249C18.159 15.1719 18.8217 13.6188 18.8217 12.0007C18.8217 10.3827 18.159 8.82962 16.9765 7.67662C15.7941 6.52363 14.1868 5.86324 12.5016 5.838ZM12.5016 7.9995C13.6068 7.9995 14.6667 8.42098 15.4482 9.17122C16.2297 9.92146 16.6688 10.939 16.6688 12C16.6688 13.061 16.2297 14.0785 15.4482 14.8288C14.6667 15.579 13.6068 16.0005 12.5016 16.0005C11.3964 16.0005 10.3364 15.579 9.55492 14.8288C8.77342 14.0785 8.33438 13.061 8.33438 12C8.33438 10.939 8.77342 9.92146 9.55492 9.17122C10.3364 8.42098 11.3964 7.9995 12.5016 7.9995Z" fill="#E4DFF9"/>
</g>
<defs>
<clipPath id="clip0_691_928">
<rect width="25" height="24" fill="white"/>
</clipPath>
</defs>
</svg>
