<svg width="33" height="24" viewBox="0 0 33 24" fill="none" xmlns="http://www.w3.org/2000/svg">
<path d="M32.7939 5.18546C32.7939 2.43342 30.7214 0.219552 28.1605 0.219552C24.6916 0.0611566 21.1539 0 17.5385 0H16.4115C12.8049 0 9.26091 0.0611567 5.79206 0.220163C3.23738 0.220163 1.16484 2.44627 1.16484 5.19831C1.00831 7.37486 0.941936 9.55204 0.945693 11.7292C0.939432 13.9064 1.01039 16.0856 1.15858 18.2668C1.15858 21.0189 3.23111 23.2511 5.7858 23.2511C9.42997 23.4162 13.168 23.4896 16.9688 23.4835C20.7757 23.4957 24.5034 23.4183 28.1517 23.2511C30.7126 23.2511 32.7852 21.0189 32.7852 18.2668C32.9355 16.0836 33.0043 13.9064 32.9981 11.7231C33.0123 9.54593 32.9442 7.36671 32.7939 5.18546ZM13.9069 17.7287V5.71141L22.986 11.717L13.9069 17.7287Z" fill="#E4DFF9"/>
</svg>
