<svg width="91" height="83" viewBox="0 0 91 83" fill="none" xmlns="http://www.w3.org/2000/svg">
<path d="M11.7078 46.1812L38.05 71.1959M38.05 46.1812L11.7078 71.1959" stroke="#FD6099" stroke-width="8" stroke-linecap="round" stroke-linejoin="round"/>
<path d="M22.2217 2.70234C23.3526 0.590884 26.38 0.590881 27.5109 2.70233L44.0357 33.5559C45.1061 35.5544 43.6582 37.9723 41.3911 37.9723H8.34141C6.07433 37.9723 4.62646 35.5544 5.69684 33.5559L22.2217 2.70234Z" fill="#FD6099"/>
<ellipse cx="67.3191" cy="20.2041" rx="17.5615" ry="17.3179" fill="#FD6099"/>
<path d="M58.9615 53.5875C58.5843 54.8478 57.4335 55.6173 56.4059 55.2981C55.3788 54.9778 54.8503 53.6972 55.2287 52.4373C55.6064 51.1759 56.7568 50.4075 57.7843 50.7267C58.8151 51.0382 59.3441 52.3177 58.9615 53.5875ZM59.1249 69.1698C60.152 69.4901 61.3024 68.7217 61.6801 67.4603C62.0626 66.1905 61.5325 64.9105 60.5024 64.6006C59.4753 64.2803 58.325 65.0487 57.9473 66.3101C57.5689 67.5699 58.0986 68.8511 59.1249 69.1698ZM81.345 59.9827C82.3126 60.446 82.589 61.7749 81.9583 62.9369C81.3252 64.1083 80.0285 64.6706 79.0646 64.1984C78.0974 63.734 77.8211 62.4051 78.4518 61.2431C79.0807 60.0817 80.3779 59.5182 81.345 59.9827ZM76.0199 67.0064C76.6501 65.8454 76.373 64.515 75.4071 64.051C74.4395 63.5876 73.1435 64.1516 72.5133 65.3125C71.8827 66.4745 72.1602 67.8039 73.1261 68.2679C74.0901 68.74 75.3856 68.1772 76.0199 67.0064ZM69.4682 68.1215C70.4357 68.5849 70.7121 69.9137 70.0814 71.0758C69.4483 72.2471 68.1516 72.8094 67.1881 72.3362C66.2206 71.8728 65.9442 70.544 66.5749 69.3819C67.2039 68.2205 68.501 67.6571 69.4682 68.1215Z" fill="#FD6099"/>
<path d="M58.1053 43.1971L58.1053 43.1971L71.3066 43.2316C72.3134 43.223 73.3197 43.4122 74.2608 43.786C75.2016 44.1598 76.0582 44.7105 76.7748 45.4035C76.7757 45.4044 76.7767 45.4053 76.7776 45.4062L86.399 54.4361L86.4052 54.4418L86.4051 54.4419C86.6456 54.6753 86.8462 54.9435 86.9981 55.2361C87.5821 55.7058 88.0128 56.3289 88.2244 57.0271C88.4477 57.7636 88.4145 58.5432 88.1221 59.2468M58.1053 43.1971L87.6579 59.0614M58.1053 43.1971L58.099 43.1971C57.7789 43.2002 57.4684 43.2474 57.1716 43.3334C56.3904 43.2332 55.5992 43.3653 54.9143 43.7205C54.1932 44.0944 53.6327 44.6939 53.3311 45.4268M58.1053 43.1971L62.809 77.2131M88.1221 59.2468L87.6579 59.0614M88.1221 59.2468L88.1225 59.246L87.6579 59.0614M88.1221 59.2468L81.6557 74.8951C81.3489 75.6379 80.8129 76.2668 80.1186 76.7069C79.425 77.1467 78.6052 77.3782 77.7612 77.3802M87.6579 59.0614L81.1911 74.7105C80.9251 75.3544 80.4594 75.9028 79.8509 76.2885C79.2425 76.6743 78.5176 76.8807 77.765 76.8826M77.7612 77.3802L77.7613 77.3802L77.765 76.8826M77.7612 77.3802L64.0898 77.4172L64.0895 77.4172C63.64 77.4182 63.2088 77.3463 62.809 77.2131M77.7612 77.3802L77.765 76.8826M77.765 76.8826L62.809 77.2131M62.809 77.2131C62.8338 77.2145 62.8586 77.2157 62.8834 77.2168L62.9104 76.7196L62.7368 77.1883C62.7607 77.1968 62.7848 77.2051 62.809 77.2131ZM62.809 77.2131C61.3176 77.132 59.8807 76.5612 58.7522 75.6016M58.7522 75.6016C58.7753 75.6123 58.7985 75.6228 58.8218 75.633L59.0297 75.1779L58.6961 75.5534C58.7147 75.5696 58.7334 75.5856 58.7522 75.6016ZM58.7522 75.6016C58.3684 75.4236 58.0088 75.1812 57.6867 74.8737L57.6865 74.8735L47.8956 65.5161L47.8955 65.516C47.2916 64.9387 46.8677 64.2132 46.682 63.4245C46.4962 62.6351 46.5578 61.8181 46.8645 61.0756L46.8645 61.0756L53.3311 45.4268M53.3311 45.4268C53.3311 45.4269 53.331 45.427 53.331 45.4272L53.7959 45.611L53.3313 45.4264L53.3311 45.4268ZM66.5492 57.7301L66.549 57.7304L60.436 72.5235C60.436 72.5236 60.436 72.5237 60.4359 72.5238C60.4328 72.5312 60.427 72.5398 60.4159 72.5482C60.4043 72.557 60.386 72.5661 60.3605 72.5701C60.3348 72.5742 60.3047 72.5727 60.2739 72.5631C60.2431 72.5535 60.216 72.5373 60.1951 72.5174L50.4029 63.1601C50.2889 63.0508 50.215 62.9192 50.1837 62.7854C50.1527 62.6523 50.1644 62.521 50.2125 62.4053L50.2129 62.4044L56.6794 46.7557C56.6825 46.7483 56.6884 46.7395 56.6997 46.731C56.7114 46.7222 56.73 46.713 56.7559 46.7091C56.7819 46.7051 56.8123 46.7069 56.8433 46.7168C56.8742 46.7267 56.9013 46.7434 56.9219 46.7635L56.9221 46.7636L66.0683 55.6914L66.0684 55.6914C66.3562 55.9724 66.55 56.316 66.6328 56.6774L67.1227 56.5626L66.6328 56.6774C66.7154 57.0381 66.6846 57.4029 66.5492 57.7301ZM63.7799 73.8632L63.7834 73.8547L69.8979 59.0582L69.8979 59.0581C70.0331 58.7309 70.2699 58.4483 70.5853 58.2458C70.9012 58.043 71.2841 57.9286 71.6901 57.9234L71.6902 57.9234L84.595 57.7554L84.5952 57.7554C84.6244 57.755 84.6557 57.7616 84.685 57.7756C84.7142 57.7896 84.7374 57.8091 84.7532 57.8298C84.769 57.8503 84.7757 57.8696 84.7779 57.8839L85.2749 57.807L84.7779 57.8839C84.7799 57.8978 84.7779 57.9081 84.7748 57.9156L84.7746 57.916L78.308 73.5648C78.2601 73.6804 78.1752 73.7824 78.0583 73.8565C77.9408 73.931 77.7946 73.9747 77.6354 73.9753C77.6353 73.9753 77.6352 73.9753 77.6351 73.9753L63.9609 74.0124L63.9607 74.0124C63.9316 74.0125 63.9005 74.0057 63.8716 73.9916C63.8426 73.9774 63.8198 73.958 63.8042 73.9375L63.7245 73.9972L63.8042 73.9375C63.7887 73.9171 63.782 73.8981 63.78 73.8838C63.7788 73.8758 63.779 73.8689 63.7799 73.8632ZM71.7501 49.8602C70.781 49.4752 69.9717 49.0137 69.4459 48.5917C69.1805 48.3787 69.0103 48.1939 68.922 48.0534C68.9002 48.0189 68.8862 47.9917 68.8771 47.9713C68.8982 47.9628 68.9275 47.9529 68.9677 47.9429C69.1308 47.9024 69.3842 47.8858 69.726 47.914C70.4031 47.9698 71.3118 48.1908 72.2808 48.5758C73.2499 48.9607 74.0592 49.4222 74.585 49.8442C74.8503 50.0572 75.0206 50.2421 75.1089 50.3825C75.1307 50.4171 75.1447 50.4442 75.1537 50.4646C75.1327 50.4732 75.1034 50.4831 75.0632 50.493C74.9001 50.5336 74.6467 50.5501 74.3049 50.5219C73.6278 50.4661 72.7191 50.2451 71.7501 49.8602ZM68.8612 47.9206C68.8612 47.9206 68.8614 47.9216 68.8613 47.9236C68.8611 47.9216 68.8611 47.9206 68.8612 47.9206ZM68.8319 47.9948C68.8306 47.9961 68.8298 47.9968 68.8297 47.9967C68.8296 47.9967 68.8303 47.996 68.8319 47.9948ZM75.1697 50.5153C75.1696 50.5153 75.1695 50.5143 75.1695 50.5124C75.1698 50.5144 75.1698 50.5153 75.1697 50.5153ZM75.199 50.4412C75.2003 50.4398 75.2011 50.4392 75.2012 50.4392C75.2012 50.4392 75.2006 50.4399 75.199 50.4412Z" fill="#FD6099" stroke="#FD6099"/>
<ellipse cx="3.07759" cy="1.5293" rx="3.07759" ry="1.5293" transform="matrix(0.9455 0.326504 -0.32917 0.943904 69.6426 46.5422)" fill="#FD6099"/>
</svg>
