<svg width="21" height="22" viewBox="0 0 21 22" fill="none" xmlns="http://www.w3.org/2000/svg">
<path d="M17.6769 18.4783L14.1745 14.7962M14.1745 14.7962C14.7736 14.1664 15.2489 13.4187 15.5731 12.5957C15.8973 11.7728 16.0642 10.8908 16.0642 10.0001C16.0642 9.10934 15.8973 8.22734 15.5731 7.40441C15.2489 6.58148 14.7736 5.83376 14.1745 5.20392C13.5754 4.57408 12.8642 4.07446 12.0814 3.73359C11.2986 3.39273 10.4597 3.21729 9.61243 3.21729C8.76517 3.21729 7.9262 3.39273 7.14344 3.73359C6.36067 4.07446 5.64943 4.57408 5.05033 5.20392C3.84038 6.47594 3.16064 8.20116 3.16064 10.0001C3.16064 11.799 3.84038 13.5242 5.05033 14.7962C6.26027 16.0682 7.90131 16.7829 9.61243 16.7829C11.3235 16.7829 12.9646 16.0682 14.1745 14.7962Z" stroke="#7560CE" stroke-width="2" stroke-linecap="round" stroke-linejoin="round"/>
</svg>
