<svg width="51" height="46" viewBox="0 0 51 46" fill="none" xmlns="http://www.w3.org/2000/svg">
<g clip-path="url(#clip0_329_3132)">
<path d="M38.7821 6.23162C38.8331 5.91896 38.837 5.6063 38.9428 5.32599C39.1308 4.83724 39.2993 4.31255 39.6245 3.90287C40.0515 3.37099 40.7254 3.38537 41.4933 3.82021C41.6382 3.51833 41.7166 3.16615 41.9399 2.92896C42.3512 2.49052 42.7822 2.01255 43.3189 1.74302C44.0829 1.35849 44.5883 1.66396 45.1407 2.68099C45.9869 2.37193 46.9037 1.72146 47.746 2.54083C48.5296 3.30271 47.9145 4.09693 47.507 4.87677C47.6833 4.95224 47.8283 5.01333 47.9733 5.08162C48.7294 5.4338 49.0076 6.14896 48.4356 6.78865C47.8832 7.40677 47.0996 7.8488 46.3944 8.38427C47.1701 9.53427 46.5942 10.0913 43.8753 10.6951C43.793 11.1586 43.8557 11.6546 43.6245 11.9565C43.2484 12.4416 42.602 12.3482 42.03 12.1829C40.8821 11.8522 39.7929 12.0068 38.7665 12.5351C37.9006 12.9843 37.0583 13.4766 36.2787 14.0408C37.4423 13.8396 38.5941 13.5449 39.7694 13.4586C41.1015 13.3616 42.4492 13.4227 43.7891 13.4838C44.1182 13.4982 44.4238 13.7965 44.7528 13.9402C45.0193 14.0552 45.2974 14.1522 45.5795 14.2205C46.5276 14.4433 46.7313 14.6733 46.7117 15.5646C47.464 15.8449 47.891 16.2833 47.4483 17.0847C47.4052 17.1602 47.507 17.3183 47.5697 17.4226C47.6403 17.5376 47.7499 17.6274 47.8322 17.7352C48.2788 18.3138 48.6628 18.9499 48.224 19.6255C47.7617 20.3407 46.9351 20.3874 46.1123 20.2976C45.9008 20.276 45.6931 20.2365 45.4933 20.2077C45.1015 21.1565 44.5374 21.3146 43.648 20.7108C43.268 20.4521 42.9468 20.1143 42.5981 19.8124C41.4541 20.6138 41.0505 20.4593 40.0868 18.8277C39.0094 19.1619 38.6058 18.9571 38.2885 17.9293C38.0143 17.0416 37.6382 16.6607 36.6117 16.6858C35.8007 16.7074 34.9976 16.9877 34.1983 17.1854C33.9554 17.2465 33.7478 17.4154 33.6499 17.3615L31.4794 15.349C31.64 15.0147 31.9456 14.4901 32.1415 13.9366C32.2708 13.5701 32.3021 13.1568 32.2825 12.7686C32.2277 11.7624 31.8986 11.4246 30.8369 11.1443C29.7791 10.8676 29.5127 10.3968 29.9397 9.59537C29.4696 9.26115 28.9446 8.98083 28.5567 8.58552C28.0553 8.07521 28.3295 7.61162 28.8937 7.28818C28.4588 6.79943 27.973 6.38974 27.6752 5.89021C27.2482 5.17865 27.4833 4.82287 28.4274 4.60365C28.3883 4.35927 28.3334 4.1113 28.3099 3.85615C28.2472 3.15177 28.3256 2.4474 29.0504 2.04849C29.7321 1.67115 30.4138 1.94068 30.9936 2.3324C31.405 2.60912 31.7223 2.82474 32.3139 2.64505C32.9642 2.4474 33.2855 2.95771 33.4853 3.44287C34.4412 3.41052 34.6959 3.59021 34.9349 4.4024C35.0485 4.78333 35.0015 5.21818 35.5226 5.45177C35.6871 5.52365 35.7419 5.87583 35.7733 6.10943C36.0593 8.22974 35.9339 10.3285 35.2601 12.3841C35.1974 12.571 35.1504 12.7615 35.0994 12.9483C35.0955 12.9591 35.1229 12.9807 35.2052 13.0741C36.4158 11.3635 37.9398 9.81099 37.1406 7.53255C37.0779 7.34927 37.0466 7.14083 37.0662 6.94677C37.1563 6.10224 37.7087 5.86146 38.7821 6.23162Z" fill="#0F9D58"/>
<path d="M38.0956 20.3281C37.4452 17.3346 33.4021 14.4739 30.1503 13.9924C25.6762 13.076 23.1453 15.588 20.8965 18.2797C20.7476 18.4558 20.7946 18.711 20.9944 18.8367C21.7349 19.3039 22.4715 19.8071 23.1962 20.3497C23.5763 20.6336 23.2002 21.1835 22.7575 20.9894C21.8172 20.5797 20.9083 20.1988 20.0268 19.8466C19.8465 19.7747 19.635 19.825 19.5135 19.9724C16.9317 23.1492 14.4126 26.3692 11.8856 29.5821C11.7485 29.7581 11.7916 29.9989 11.9796 30.1247C12.4498 30.441 12.9199 30.768 13.3822 31.113C13.7701 31.4005 13.39 31.9575 12.9395 31.7599C12.3401 31.4975 11.7524 31.2496 11.1726 31.0088C10.9884 30.9333 10.7769 30.9872 10.6554 31.1381C9.07264 33.1363 7.44284 35.1021 5.87965 37.111C3.69744 39.9105 1.79732 43.7881 2.84729 45.1753C3.80322 46.4439 8.59075 45.7431 12.0972 43.1988C13.0531 42.5052 14.0756 41.8906 15.0747 41.2474C15.2431 41.1396 15.3019 40.9383 15.2196 40.7658C14.9767 40.2735 14.7221 39.7739 14.4596 39.2636C14.248 38.8539 14.8475 38.5089 15.157 38.8611C15.5096 39.2564 15.8465 39.6589 16.1677 40.0614C16.3049 40.2339 16.5634 40.2735 16.7554 40.1477C20.2697 37.8585 23.7996 35.5872 27.353 33.3519C27.5215 33.2477 27.5842 33.05 27.5019 32.8775C27.1062 32.0438 26.6792 31.1813 26.2169 30.29C26.0053 29.8839 26.6047 29.5389 26.9142 29.8875C27.545 30.5991 28.1326 31.325 28.6733 32.0546C28.8065 32.2342 29.069 32.281 29.261 32.1588C30.1425 31.6089 31.0201 31.0555 31.9055 30.5092C35.9212 28.0296 38.6127 25.0467 38.0956 20.3281Z" fill="#F57C00"/>
</g>
<defs>
<clipPath id="clip0_329_3132">
<rect width="50.1476" height="46" rx="4" fill="white"/>
</clipPath>
</defs>
</svg>
