<svg width="25" height="26" viewBox="0 0 25 26" fill="none" xmlns="http://www.w3.org/2000/svg">
<mask id="mask0_329_4689" style="mask-type:luminance" maskUnits="userSpaceOnUse" x="1" y="3" width="23" height="20">
<path d="M5.20801 10.2915C5.20801 10.2915 2.52936 11.3748 2.08301 15.1665M19.7913 10.2915C19.7913 10.2915 22.47 11.3748 22.9163 15.1665M9.37468 10.2915C9.37468 10.2915 11.8747 10.9236 12.4997 14.0832C13.1247 10.9236 15.6247 10.2915 15.6247 10.2915M10.4163 18.4165C10.4163 18.4165 8.22884 18.8228 7.29134 21.6665M14.583 18.4165C14.583 18.4165 16.7705 18.8228 17.708 21.6665" stroke="white" stroke-width="2" stroke-linecap="round"/>
<path d="M12.4997 19.4999C13.9379 19.4999 15.1038 18.2874 15.1038 16.7916C15.1038 15.2958 13.9379 14.0833 12.4997 14.0833C11.0614 14.0833 9.89551 15.2958 9.89551 16.7916C9.89551 18.2874 11.0614 19.4999 12.4997 19.4999Z" fill="white" stroke="white" stroke-width="2" stroke-linecap="round" stroke-linejoin="round"/>
<path d="M17.708 10.8333C19.4339 10.8333 20.833 9.37818 20.833 7.58325C20.833 5.78833 19.4339 4.33325 17.708 4.33325C15.9821 4.33325 14.583 5.78833 14.583 7.58325C14.583 9.37818 15.9821 10.8333 17.708 10.8333Z" fill="white" stroke="white" stroke-width="2" stroke-linecap="round" stroke-linejoin="round"/>
<path d="M7.29102 10.8333C9.01691 10.8333 10.416 9.37818 10.416 7.58325C10.416 5.78833 9.01691 4.33325 7.29102 4.33325C5.56513 4.33325 4.16602 5.78833 4.16602 7.58325C4.16602 9.37818 5.56513 10.8333 7.29102 10.8333Z" fill="white" stroke="white" stroke-width="2" stroke-linecap="round" stroke-linejoin="round"/>
</mask>
<g mask="url(#mask0_329_4689)">
<path d="M0 0H25V26H0V0Z" fill="#E4DFF9"/>
</g>
</svg>
