<svg width="30" height="27" viewBox="0 0 30 27" fill="none" xmlns="http://www.w3.org/2000/svg">
<g clip-path="url(#clip0_329_4704)">
<path fill-rule="evenodd" clip-rule="evenodd" d="M14.8881 4.55559C12.6191 4.55559 10.4431 5.34951 8.83872 6.76269C7.23432 8.17588 6.33299 10.0926 6.33299 12.0911V21.3706C6.33294 21.4455 6.35513 21.5192 6.39734 21.5843C6.43956 21.6494 6.50034 21.7037 6.57368 21.7418C6.64701 21.7798 6.73036 21.8004 6.81547 21.8013C6.90058 21.8023 6.98451 21.7837 7.05895 21.7473L8.21144 21.1843C8.94632 20.8246 9.77411 20.6379 10.6148 20.6422C11.4556 20.6465 12.2808 20.8418 13.0109 21.2091L13.6757 21.5439C14.045 21.7297 14.4628 21.8274 14.8881 21.8274C15.3133 21.8274 15.7312 21.7297 16.1005 21.5439L16.7653 21.2102C17.4953 20.8427 18.3205 20.6473 19.1612 20.6427C20.0019 20.6382 20.8297 20.8247 21.5647 21.1843L22.7172 21.7473C22.7917 21.7837 22.8756 21.8023 22.9607 21.8013C23.0458 21.8004 23.1292 21.7798 23.2025 21.7418C23.2758 21.7037 23.3366 21.6494 23.3788 21.5843C23.421 21.5192 23.4432 21.4455 23.4432 21.3706V12.0911C23.4432 11.1015 23.2219 10.1216 22.792 9.20739C22.362 8.29314 21.7319 7.46243 20.9375 6.76269C20.143 6.06296 19.1999 5.50789 18.162 5.1292C17.124 4.7505 16.0116 4.55559 14.8881 4.55559ZM3.88867 12.0911C3.88867 9.52155 5.04754 7.05724 7.11033 5.24029C9.17312 3.42334 11.9709 2.40259 14.8881 2.40259C17.8053 2.40259 20.6031 3.42334 22.6658 5.24029C24.7286 7.05724 25.8875 9.52155 25.8875 12.0911V21.3706C25.8875 23.3406 23.4847 24.5861 21.5293 23.6301L20.378 23.066C20.0105 22.8862 19.5964 22.7928 19.1759 22.7951C18.7555 22.7974 18.3427 22.8951 17.9777 23.079L17.3141 23.4127C16.5753 23.7846 15.7391 23.9803 14.8881 23.9803C14.0371 23.9803 13.2009 23.7846 12.4621 23.4127L11.7985 23.079C11.4334 22.8951 11.0207 22.7974 10.6002 22.7951C10.1798 22.7928 9.76572 22.8862 9.39816 23.066L8.24688 23.6301C6.29143 24.5861 3.88867 23.3406 3.88867 21.3706V12.0911ZM13.0549 11.5529C13.0549 11.9811 12.8617 12.3918 12.5179 12.6947C12.1741 12.9975 11.7078 13.1676 11.2216 13.1676C10.7354 13.1676 10.2691 12.9975 9.92532 12.6947C9.58152 12.3918 9.38838 11.9811 9.38838 11.5529C9.38838 11.1246 9.58152 10.7139 9.92532 10.4111C10.2691 10.1082 10.7354 9.9381 11.2216 9.9381C11.7078 9.9381 12.1741 10.1082 12.5179 10.4111C12.8617 10.7139 13.0549 11.1246 13.0549 11.5529ZM18.5546 13.1676C19.0408 13.1676 19.5071 12.9975 19.8509 12.6947C20.1946 12.3918 20.3878 11.9811 20.3878 11.5529C20.3878 11.1246 20.1946 10.7139 19.8509 10.4111C19.5071 10.1082 19.0408 9.9381 18.5546 9.9381C18.0684 9.9381 17.6021 10.1082 17.2583 10.4111C16.9145 10.7139 16.7213 11.1246 16.7213 11.5529C16.7213 11.9811 16.9145 12.3918 17.2583 12.6947C17.6021 12.9975 18.0684 13.1676 18.5546 13.1676Z" fill="#E4DFF9"/>
</g>
<defs>
<clipPath id="clip0_329_4704">
<rect width="29.3318" height="25.8361" fill="white" transform="translate(0.222656 0.249512)"/>
</clipPath>
</defs>
</svg>
